<?xml version="1.0" encoding="utf-8"?>
<!-- Generator: Adobe Illustrator 19.1.0, SVG Export Plug-In . SVG Version: 6.00 Build 0)  -->
<svg version="1.1" id="Layer_1" xmlns="http://www.w3.org/2000/svg" xmlns:xlink="http://www.w3.org/1999/xlink" x="0px" y="0px"
height="85.8"
     width="117.3"
	 viewBox="44.3 9.1 117.3 85.8" style="enable-background:new 44.3 9.1 117.3 85.8;" xml:space="preserve" preserveAspectRatio="xMidYMid meet">
<style type="text/css">
	.st0{fill:#E03A3E;}
</style>
<g>
	<g>
		<path class="st0" d="M66.9,68.7V49.9h8.2c6.1,0,9.8,2.8,9.8,9c0,7.1-3.9,9.8-10,9.8L66.9,68.7L66.9,68.7z M73.1,64.3h1.3
			c2.9,0,4.4-1.5,4.4-5.1c0-3.9-1.3-5-4.6-5H73L73.1,64.3L73.1,64.3z"/>
		<path class="st0" d="M102.6,55.4c-0.1-0.7-0.4-1-0.9-1.3c-0.4-0.2-1-0.3-1.6-0.3c-1.4,0-2,0.4-2,1.1c0,2.8,10.8,1.1,10.8,7.9
			c0,4.4-3.6,6.5-8.8,6.5c-5,0-8.2-2.9-8.3-6.3h5.9c0.1,0.7,0.5,1.2,1,1.5s1.1,0.5,1.7,0.5c1.5,0,2.6-0.5,2.6-1.4
			c0-2.8-10.8-0.9-10.8-8.1c0-4,3.4-6,8.1-6c5.2,0,7.6,2.7,8,5.9L102.6,55.4L102.6,55.4z"/>
		<polygon class="st0" points="116.4,49.9 133.7,49.9 133.7,54.8 128.1,54.8 128.1,68.7 122,68.7 122,54.8 116.4,54.8 		"/>
		<path d="M139.1,11.2c0-1.2,0.9-2,2.1-2c1.1,0,2,0.9,2,2c0,1.2-0.9,2-2,2C140.1,13.2,139.1,12.4,139.1,11.2z M141.2,12.9
			c0.9,0,1.6-0.7,1.6-1.7s-0.7-1.7-1.6-1.7c-0.9,0-1.7,0.7-1.7,1.7S140.3,12.9,141.2,12.9z M140.8,12.4h-0.4V10h0.9
			c0.6,0,0.8,0.2,0.8,0.7c0,0.4-0.3,0.6-0.6,0.6l0.7,1h-0.4l-0.6-1h-0.4V12.4z M141.2,11.1c0.3,0,0.6,0,0.6-0.4
			c0-0.3-0.3-0.3-0.5-0.3h-0.5v0.7C140.8,11.1,141.2,11.1,141.2,11.1z"/>
		<rect x="87.7" y="9.1" width="1" height="59.7"/>
		<rect x="62.7" y="9.1" width="1" height="59.7"/>
		<rect x="112" y="9.1" width="1" height="59.7"/>
		<rect x="137.1" y="9.1" width="1" height="59.7"/>
	</g>
	<g>
		<g>
			<path d="M46.8,87.2l1.7,5.3l1.7-5.3h2.4v7.7h-1.9V93l0.2-3.7L49,94.8h-1.2l-1.9-5.5l0.2,3.7v1.8h-1.8v-7.7L46.8,87.2L46.8,87.2z"
				/>
			<path d="M58.3,93.4h-2.5l-0.4,1.4h-2l2.8-7.7h1.7l2.8,7.7h-2L58.3,93.4z M56.2,92h1.6L57,89.3L56.2,92z"/>
			<path d="M65.2,92.8c0-0.3-0.1-0.5-0.3-0.6c-0.2-0.2-0.5-0.3-1-0.5s-0.9-0.3-1.2-0.5c-1-0.5-1.5-1.2-1.5-2c0-0.4,0.1-0.8,0.4-1.1
				c0.2-0.3,0.6-0.6,1.1-0.8c0.5-0.2,1-0.3,1.5-0.3c0.6,0,1,0.1,1.5,0.3c0.4,0.2,0.8,0.5,1,0.8c0.2,0.4,0.4,0.8,0.4,1.2h-1.8
				c0-0.3-0.1-0.6-0.3-0.7c-0.2-0.2-0.5-0.3-0.8-0.3c-0.3,0-0.6,0.1-0.8,0.2c-0.2,0.1-0.3,0.3-0.3,0.6c0,0.2,0.1,0.4,0.3,0.5
				c0.2,0.2,0.6,0.3,1.1,0.5s1,0.4,1.3,0.5c0.8,0.5,1.2,1.1,1.2,2c0,0.7-0.3,1.2-0.8,1.6s-1.2,0.6-2.1,0.6c-0.6,0-1.2-0.1-1.7-0.3
				c-0.5-0.2-0.9-0.5-1.1-0.9c-0.3-0.4-0.4-0.8-0.4-1.3h1.9c0,0.4,0.1,0.7,0.3,0.9c0.2,0.2,0.6,0.3,1,0.3c0.3,0,0.5-0.1,0.7-0.2
				C65.1,93.2,65.2,93,65.2,92.8z"/>
			<path d="M74,88.6h-2.3v6.2h-1.8v-6.2h-2.3v-1.4H74V88.6z"/>
			<path d="M79.5,91.6h-2.9v1.8H80v1.4h-5.3v-7.7H80v1.4h-3.4v1.6h2.9V91.6z"/>
			<path d="M83.7,92.1h-1v2.7h-1.8v-7.7h3c0.9,0,1.6,0.2,2.1,0.6s0.8,1,0.8,1.7c0,0.5-0.1,1-0.3,1.3c-0.2,0.4-0.6,0.6-1,0.9l1.6,3.1
				v0.1h-2L83.7,92.1z M82.7,90.7h1.2c0.4,0,0.6-0.1,0.8-0.3c0.2-0.2,0.3-0.4,0.3-0.8c0-0.3-0.1-0.6-0.3-0.8
				c-0.2-0.2-0.4-0.3-0.8-0.3h-1.2V90.7z"/>
			<path d="M96.7,92.2c0,0.5-0.2,1-0.4,1.4c-0.3,0.4-0.6,0.7-1.1,1c-0.5,0.2-1,0.3-1.6,0.3c-1,0-1.8-0.3-2.4-1
				c-0.6-0.7-0.9-1.6-0.9-2.8v-0.4c0-0.8,0.1-1.4,0.4-2s0.6-1,1.1-1.3s1.1-0.5,1.7-0.5c0.9,0,1.7,0.2,2.2,0.7c0.6,0.5,0.9,1.2,1,2
				h-1.8c0-0.5-0.1-0.8-0.4-1c-0.2-0.2-0.6-0.3-1-0.3c-0.5,0-0.8,0.2-1,0.5c-0.2,0.3-0.3,0.9-0.3,1.6v0.5c0,0.8,0.1,1.4,0.3,1.8
				c0.2,0.4,0.6,0.5,1.1,0.5c0.4,0,0.7-0.1,1-0.3c0.2-0.2,0.3-0.5,0.4-1h1.7V92.2z"/>
			<path d="M104.1,91.1c0,0.7-0.1,1.4-0.4,2s-0.7,1-1.2,1.3s-1.1,0.5-1.7,0.5c-0.7,0-1.2-0.2-1.7-0.4c-0.5-0.3-0.9-0.7-1.2-1.3
				c-0.3-0.6-0.4-1.2-0.4-1.9v-0.4c0-0.8,0.1-1.4,0.4-2s0.7-1,1.2-1.3s1.1-0.5,1.8-0.5c0.6,0,1.2,0.2,1.7,0.5s0.9,0.7,1.2,1.3
				c0.3,0.6,0.4,1.2,0.4,2v0.2H104.1z M102.2,90.8c0-0.8-0.1-1.3-0.4-1.7c-0.3-0.4-0.6-0.6-1.1-0.6c-0.9,0-1.4,0.7-1.5,2.1v0.6
				c0,0.8,0.1,1.3,0.4,1.7c0.2,0.4,0.6,0.6,1.1,0.6s0.8-0.2,1.1-0.6s0.4-1,0.4-1.7V90.8z"/>
			<path d="M107.5,87.2l1.7,5.3l1.7-5.3h2.4v7.7h-1.9V93l0.2-3.7l-1.9,5.5h-1.2l-1.9-5.5l0.2,3.7v1.8H105v-7.7L107.5,87.2
				L107.5,87.2z"/>
			<path d="M116.4,92.2v2.6h-1.8v-7.7h3.1c0.6,0,1.1,0.1,1.6,0.3c0.5,0.2,0.8,0.5,1,0.9s0.4,0.9,0.4,1.4c0,0.7-0.3,1.3-0.8,1.8
				s-1.3,0.7-2.2,0.7C117.7,92.2,116.4,92.2,116.4,92.2z M116.4,90.8h1.2c0.4,0,0.6-0.1,0.8-0.3c0.2-0.2,0.3-0.4,0.3-0.8
				s-0.1-0.6-0.3-0.9c-0.2-0.2-0.5-0.3-0.8-0.3h-1.2V90.8z"/>
			<path d="M123.4,93.4h3.2v1.4h-5.1v-7.7h1.8L123.4,93.4L123.4,93.4z"/>
			<path d="M132.1,91.6h-2.9v1.8h3.4v1.4h-5.3v-7.7h5.3v1.4h-3.4v1.6h2.9V91.6z"/>
			<path d="M136.3,89.7l1.3-2.5h2.1l-2.1,3.8l2.2,3.9h-2.1l-1.3-2.6l-1.3,2.6H133l2.2-3.9l-2.1-3.8h2.1L136.3,89.7z"/>
			<path d="M142.3,94.8h-1.8v-7.7h1.8V94.8z"/>
			<path d="M149.4,88.6h-2.3v6.2h-1.8v-6.2H143v-1.4h6.4V88.6z"/>
			<path d="M153.1,90.5l1.4-3.3h2l-2.5,4.9v2.8h-1.9v-2.8l-2.5-4.9h2L153.1,90.5z"/>
		</g>
		<g>
			<path d="M158.9,87.5h-0.7v1.9h-0.6v-1.9H157v-0.4h1.9V87.5z"/>
			<path d="M159.9,87.1l0.5,1.6l0.5-1.6h0.7v2.3H161v-0.5l0.1-1.1l-0.6,1.6h-0.4l-0.6-1.6l0.1,1.1v0.5H159v-2.3H159.9z"/>
		</g>
	</g>
</g>
</svg>
